<?xml version="1.0" encoding="utf-8"?>
<!-- Generator: Adobe Illustrator 16.0.0, SVG Export Plug-In . SVG Version: 6.00 Build 0)  -->
<!DOCTYPE svg PUBLIC "-//W3C//DTD SVG 1.1//EN" "http://www.w3.org/Graphics/SVG/1.1/DTD/svg11.dtd">
<svg version="1.1" id="레이어_1" xmlns="http://www.w3.org/2000/svg" xmlns:xlink="http://www.w3.org/1999/xlink" x="0px"
	 y="0px" width="50px" height="50px" viewBox="0 0 50 50" enable-background="new 0 0 50 50" xml:space="preserve">
<rect fill="none" width="50" height="50"/>
<path fill="none" stroke="#999999" stroke-width="3" stroke-miterlimit="10" d="M42.5,41c0,2.209-1.791,4-4,4h-27
	c-2.209,0-4-1.791-4-4V9c0-2.209,1.791-4,4-4h27c2.209,0,4,1.791,4,4V41z"/>
<line fill="none" stroke="#999999" stroke-width="3" stroke-linecap="round" stroke-miterlimit="10" x1="12.5" y1="37.5" x2="17.5" y2="37.5"/>
<line fill="none" stroke="#999999" stroke-width="3" stroke-linecap="round" stroke-miterlimit="10" x1="12.5" y1="32.5" x2="17.5" y2="32.5"/>
<line fill="none" stroke="#999999" stroke-width="3" stroke-linecap="round" stroke-miterlimit="10" x1="12.5" y1="27.5" x2="17.5" y2="27.5"/>
<line fill="none" stroke="#999999" stroke-width="3" stroke-linecap="round" stroke-miterlimit="10" x1="25" y1="27.5" x2="37.5" y2="27.5"/>
<line fill="none" stroke="#999999" stroke-width="3" stroke-linecap="round" stroke-miterlimit="10" x1="12.5" y1="22.5" x2="17.5" y2="22.5"/>
<line fill="none" stroke="#999999" stroke-width="3" stroke-linecap="round" stroke-miterlimit="10" x1="25" y1="22.5" x2="37.5" y2="22.5"/>
<line fill="none" stroke="#999999" stroke-width="3" stroke-linecap="round" stroke-miterlimit="10" x1="25" y1="32.5" x2="37.5" y2="32.5"/>
<line fill="none" stroke="#999999" stroke-width="3" stroke-linecap="round" stroke-miterlimit="10" x1="25" y1="37.5" x2="37.5" y2="37.5"/>
<line fill="none" stroke="#999999" stroke-width="3" stroke-linecap="round" stroke-miterlimit="10" x1="7.5" y1="15" x2="42.5" y2="15"/>
</svg>
