<?xml version="1.0" encoding="utf-8"?>
<!-- Generator: Adobe Illustrator 16.0.0, SVG Export Plug-In . SVG Version: 6.00 Build 0)  -->
<!DOCTYPE svg PUBLIC "-//W3C//DTD SVG 1.1//EN" "http://www.w3.org/Graphics/SVG/1.1/DTD/svg11.dtd">
<svg version="1.1" id="레이어_1" xmlns="http://www.w3.org/2000/svg" xmlns:xlink="http://www.w3.org/1999/xlink" x="0px"
	 y="0px" width="50px" height="50px" viewBox="0 0 50 50" enable-background="new 0 0 50 50" xml:space="preserve">
<rect fill="none" width="50" height="50"/>
<path fill="#999999" d="M30.162,27.5c0.977-0.954,1.588-2.28,1.588-3.75c0-2.895-2.355-5.25-5.25-5.25
	c-2.896,0-5.25,2.355-5.25,5.25c0,1.47,0.611,2.796,1.587,3.75c-0.977,0.954-1.587,2.28-1.587,3.75c0,2.895,2.355,5.25,5.25,5.25
	c2.895,0,5.25-2.355,5.25-5.25C31.75,29.78,31.139,28.454,30.162,27.5z M24.25,23.75c0-1.24,1.009-2.25,2.25-2.25
	c1.24,0,2.25,1.01,2.25,2.25S27.74,26,26.5,26C25.259,26,24.25,24.99,24.25,23.75z M26.5,33.5c-1.241,0-2.25-1.01-2.25-2.25
	S25.259,29,26.5,29c1.24,0,2.25,1.01,2.25,2.25S27.74,33.5,26.5,33.5z M8,26.5C8,16.299,16.299,8,26.5,8c4.562,0,8.735,1.668,11.965,4.415l2.119-2.121
		C36.808,7.007,31.889,5,26.5,5C14.645,5,5,14.645,5,26.5c0,5.389,2.007,10.307,5.293,14.083l2.12-2.12
		C9.667,35.234,8,31.061,8,26.5z M43,26.5c0-4.01-1.441-7.688-3.828-10.551l-2.135,2.135C38.887,20.394,40,23.317,40,26.5
		c0,3.723-1.515,7.099-3.961,9.543l2.121,2.12C41.148,35.175,43,31.05,43,26.5z M26.5,13c3.183,0,6.106,1.113,8.417,2.963l2.134-2.135C34.188,11.44,30.51,10,26.5,10
		C17.402,10,10,17.402,10,26.5c0,4.009,1.44,7.687,3.826,10.549l2.134-2.135C14.113,32.604,13,29.682,13,26.5
		C13,19.056,19.056,13,26.5,13z M38.465,12.415l-1.414,1.413c0.77,0.642,1.479,1.352,2.121,2.121l1.414-1.413
		C39.937,13.772,39.228,13.063,38.465,12.415z M40.586,14.536l2.119-2.121c-0.656-0.755-1.365-1.463-2.121-2.121l-2.119,2.121
		C39.228,13.063,39.937,13.772,40.586,14.536z M37.051,13.828l-2.134,2.135c0.783,0.627,1.494,1.338,2.12,2.121l2.135-2.135
		C38.53,15.18,37.82,14.47,37.051,13.828z M13.826,37.049l-1.413,1.414c0.649,0.763,1.358,1.473,2.121,2.121l1.414-1.414
		C15.178,38.528,14.468,37.818,13.826,37.049z M12.413,38.463l-2.12,2.12c0.658,0.756,1.366,1.465,2.122,2.122l2.12-2.121
		C13.771,39.936,13.062,39.226,12.413,38.463z M15.96,34.914l-2.134,2.135c0.642,0.77,1.352,1.479,2.122,2.121l2.133-2.134
		C17.298,36.408,16.587,35.697,15.96,34.914z"/>
</svg>
