<?xml version="1.0" encoding="utf-8"?>
<!-- Generator: Adobe Illustrator 16.0.0, SVG Export Plug-In . SVG Version: 6.00 Build 0)  -->
<!DOCTYPE svg PUBLIC "-//W3C//DTD SVG 1.1//EN" "http://www.w3.org/Graphics/SVG/1.1/DTD/svg11.dtd">
<svg version="1.1" id="레이어_1" xmlns="http://www.w3.org/2000/svg" xmlns:xlink="http://www.w3.org/1999/xlink" x="0px"
	 y="0px" width="50px" height="50px" viewBox="0 0 50 50" enable-background="new 0 0 50 50" xml:space="preserve">
	<path fill="#999999" d="M25,38.467l-0.971-0.822C22.695,36.514,11,26.385,11,19c0-7.72,6.279-14,14-14c7.719,0,14,6.28,14,14
		c0,7.385-11.697,17.514-13.031,18.645L25,38.467z M25,8c-6.066,0-11,4.935-11,11c0,4.654,7.215,12.104,10.999,15.507
		C28.783,31.102,36,23.648,36,19C36,12.935,31.064,8,25,8z M25,38.467l-0.971-0.822C22.695,36.514,11,26.385,11,19c0-7.72,6.279-14,14-14c7.719,0,14,6.28,14,14
		c0,7.385-11.697,17.514-13.031,18.645L25,38.467z M25,8c-6.066,0-11,4.935-11,11c0,4.654,7.215,12.104,10.999,15.507
		C28.783,31.102,36,23.648,36,19C36,12.935,31.064,8,25,8z M25,25.5c-3.584,0-6.5-2.916-6.5-6.5s2.916-6.5,6.5-6.5s6.5,2.916,6.5,6.5S28.584,25.5,25,25.5z M25,15.5
	c-1.93,0-3.5,1.57-3.5,3.5s1.57,3.5,3.5,3.5s3.5-1.57,3.5-3.5S26.93,15.5,25,15.5z"/>
</svg>
