<?xml version="1.0" encoding="utf-8"?>
<!-- Generator: Adobe Illustrator 16.0.0, SVG Export Plug-In . SVG Version: 6.00 Build 0)  -->
<!DOCTYPE svg PUBLIC "-//W3C//DTD SVG 1.1//EN" "http://www.w3.org/Graphics/SVG/1.1/DTD/svg11.dtd">
<svg version="1.1" id="레이어_1" xmlns="http://www.w3.org/2000/svg" xmlns:xlink="http://www.w3.org/1999/xlink" x="0px"
	 y="0px" width="50px" height="50px" viewBox="0 0 50 50" enable-background="new 0 0 50 50" xml:space="preserve">
<rect fill="none" width="50" height="50"/>
<polyline fill="none" stroke="#999999" stroke-width="3" stroke-linecap="round" stroke-miterlimit="10" points="5,10 5,5 10,5 "/>
<polyline fill="none" stroke="#999999" stroke-width="3" stroke-linecap="round" stroke-miterlimit="10" points="5,40 5,45 10,45 
	"/>
<polyline fill="none" stroke="#999999" stroke-width="3" stroke-linecap="round" stroke-miterlimit="10" points="40,45 45,45 45,40 
	"/>
<polyline fill="none" stroke="#999999" stroke-width="3" stroke-linecap="round" stroke-miterlimit="10" points="45,10 45,5 40,5 
	"/>
<line fill="none" stroke="#999999" stroke-width="3" stroke-linecap="round" stroke-miterlimit="10" x1="5" y1="20" x2="5" y2="30"/>
<line fill="none" stroke="#999999" stroke-width="3" stroke-linecap="round" stroke-miterlimit="10" x1="20" y1="5" x2="30" y2="5"/>
<line fill="none" stroke="#999999" stroke-width="3" stroke-linecap="round" stroke-miterlimit="10" x1="45" y1="20" x2="45" y2="30"/>
<line fill="none" stroke="#999999" stroke-width="3" stroke-linecap="round" stroke-miterlimit="10" x1="20" y1="45" x2="30" y2="45"/>
<polyline fill="none" stroke="#999999" stroke-width="3" stroke-linecap="round" stroke-miterlimit="10" points="17.5,20 17.5,15 
	32.5,15 32.5,20 "/>
<line fill="none" stroke="#999999" stroke-width="3" stroke-linecap="round" stroke-miterlimit="10" x1="25" y1="35" x2="25" y2="15"/>
<line fill="none" stroke="#999999" stroke-width="3" stroke-linecap="round" stroke-miterlimit="10" x1="20" y1="35" x2="30" y2="35"/>
</svg>
