<?xml version="1.0" encoding="utf-8"?>
<!-- Generator: Adobe Illustrator 16.0.0, SVG Export Plug-In . SVG Version: 6.00 Build 0)  -->
<!DOCTYPE svg PUBLIC "-//W3C//DTD SVG 1.1//EN" "http://www.w3.org/Graphics/SVG/1.1/DTD/svg11.dtd">
<svg version="1.1" id="레이어_1" xmlns="http://www.w3.org/2000/svg" xmlns:xlink="http://www.w3.org/1999/xlink" x="0px"
	 y="0px" width="50px" height="50px" viewBox="0 0 50 50" enable-background="new 0 0 50 50" xml:space="preserve">
<rect fill="none" width="50" height="50"/>
<path fill="#999999" d="M5,21.5h3.682c0.68,2.862,3.251,5,6.318,5s5.639-2.138,6.318-5H45c0.828,0,1.5-0.671,1.5-1.5
		s-0.672-1.5-1.5-1.5H21.318c-0.68-2.862-3.251-5-6.318-5s-5.639,2.138-6.318,5H5c-0.828,0-1.5,0.671-1.5,1.5S4.172,21.5,5,21.5z
		 M15,16.5c1.391,0,2.585,0.822,3.148,2c0.219,0.457,0.352,0.961,0.352,1.5s-0.133,1.043-0.352,1.5c-0.563,1.178-1.758,2-3.148,2
		s-2.585-0.822-3.148-2C11.633,21.043,11.5,20.539,11.5,20s0.133-1.043,0.352-1.5C12.415,17.322,13.609,16.5,15,16.5z M45,28.5h-3.682c-0.68-2.862-3.251-5-6.318-5s-5.639,2.138-6.318,5H5c-0.828,0-1.5,0.672-1.5,1.5
		s0.672,1.5,1.5,1.5h23.682c0.68,2.862,3.251,5,6.318,5s5.639-2.138,6.318-5H45c0.828,0,1.5-0.672,1.5-1.5S45.828,28.5,45,28.5z
		 M35,33.5c-1.391,0-2.585-0.822-3.148-2C31.633,31.044,31.5,30.539,31.5,30s0.133-1.044,0.352-1.5c0.563-1.178,1.758-2,3.148-2
		s2.585,0.822,3.148,2c0.219,0.456,0.352,0.961,0.352,1.5s-0.133,1.044-0.352,1.5C37.585,32.678,36.391,33.5,35,33.5z"/>
</svg>
