<?xml version="1.0" encoding="utf-8"?>
<!-- Generator: Adobe Illustrator 16.0.0, SVG Export Plug-In . SVG Version: 6.00 Build 0)  -->
<!DOCTYPE svg PUBLIC "-//W3C//DTD SVG 1.1//EN" "http://www.w3.org/Graphics/SVG/1.1/DTD/svg11.dtd">
<svg version="1.1" id="레이어_1" xmlns="http://www.w3.org/2000/svg" xmlns:xlink="http://www.w3.org/1999/xlink" x="0px"
	 y="0px" width="50px" height="50px" viewBox="0 0 50 50" enable-background="new 0 0 50 50" xml:space="preserve">
<rect fill="none" width="50" height="50"/>
	<path fill="#999999" d="M45,43.5H6.5V5c0-0.828-0.672-1.5-1.5-1.5S3.5,4.172,3.5,5v41.5H45c0.828,0,1.5-0.672,1.5-1.5
		S45.828,43.5,45,43.5z M15.229,35.748l7.148-12.511c-1.094-0.041-2.048-0.62-2.605-1.485l-7.148,12.511
		C13.717,34.304,14.671,34.883,15.229,35.748z M27.5,26.75c0.02,0,0.036,0.005,0.055,0.006l-2.428-4.857c-0.592,0.814-1.545,1.352-2.627,1.352
		c-0.02,0-0.036-0.005-0.055-0.006l2.428,4.857C25.465,27.287,26.418,26.75,27.5,26.75z M30.229,28.248l7.148-12.511c-1.094-0.041-2.048-0.62-2.605-1.485l-7.148,12.511
		C28.717,26.804,29.671,27.383,30.229,28.248z M22.5,21.75c0.924,0,1.674-0.722,1.738-1.629C24.24,20.08,24.25,20.041,24.25,20
		c0-0.617-0.323-1.158-0.808-1.47c-0.272-0.176-0.595-0.28-0.942-0.28c-0.315,0-0.607,0.091-0.863,0.237
		C21.11,18.789,20.75,19.351,20.75,20c0,0.012,0.003,0.022,0.004,0.033C20.771,20.982,21.547,21.75,22.5,21.75z M22.412,23.178l-0.035,0.06c0.023,0.001,0.045,0.007,0.068,0.007L22.412,23.178z M12.5,39.25c0.965,0,1.75-0.785,1.75-1.75c0-0.012-0.003-0.022-0.004-0.033
		c-0.018-0.949-0.793-1.717-1.746-1.717c-0.315,0-0.607,0.091-0.863,0.237c-0.526,0.302-0.887,0.863-0.887,1.513
		C10.75,38.465,11.535,39.25,12.5,39.25z M27.5,28.25c-0.924,0-1.674,0.722-1.738,1.629C25.76,29.92,25.75,29.959,25.75,30
		c0,0.617,0.323,1.158,0.808,1.47c0.272,0.176,0.595,0.28,0.942,0.28c0.315,0,0.607-0.091,0.863-0.237
		C28.89,31.211,29.25,30.649,29.25,30c0-0.012-0.003-0.022-0.004-0.033C29.229,29.018,28.453,28.25,27.5,28.25z M27.623,26.763c-0.023-0.001-0.045-0.007-0.068-0.007l0.033,0.066L27.623,26.763z M37.5,14.25c0.315,0,0.607-0.091,0.863-0.237c0.526-0.302,0.887-0.863,0.887-1.513
		c0-0.965-0.785-1.75-1.75-1.75s-1.75,0.785-1.75,1.75c0,0.012,0.003,0.022,0.004,0.033C35.771,13.482,36.547,14.25,37.5,14.25z"/>
</svg>
