<?xml version="1.0" encoding="utf-8"?>
<!-- Generator: Adobe Illustrator 16.0.0, SVG Export Plug-In . SVG Version: 6.00 Build 0)  -->
<!DOCTYPE svg PUBLIC "-//W3C//DTD SVG 1.1//EN" "http://www.w3.org/Graphics/SVG/1.1/DTD/svg11.dtd">
<svg version="1.1" id="레이어_1" xmlns="http://www.w3.org/2000/svg" xmlns:xlink="http://www.w3.org/1999/xlink" x="0px"
	 y="0px" width="50px" height="50px" viewBox="0 0 50 50" enable-background="new 0 0 50 50" xml:space="preserve">
<rect fill="none" width="50" height="50"/>
<path fill="none" stroke="#999999" stroke-width="3" stroke-miterlimit="10" d="M43.648,9.896
	c-2.484-2.484-9.293-1.137-12.489,1.147C29.243,10.314,27.172,9.896,25,9.896c-2.172,0-4.243,0.418-6.159,1.147
	C15.645,8.76,8.836,7.412,6.352,9.896C3.869,12.38,5.216,17.862,7.5,21.059c-0.73,1.916-1.148,3.986-1.148,6.159
	c0,6.913,5.386,11.359,11.244,13.302C18.146,43.055,21.246,45,25,45s6.854-1.945,7.404-4.48c5.857-1.942,11.244-6.389,11.244-13.302
	c0-2.173-0.418-4.243-1.148-6.159C44.783,17.862,46.131,12.38,43.648,9.896z"/>
<path fill="#999999" d="M30,26.936c0,2.762-2.238,5-5,5c-2.761,0-5-2.238-5-5s2.239-2.5,5-2.5C27.762,24.436,30,24.174,30,26.936z"
	/>
<path fill="#999999" d="M20,19.436c0,1.381-1.119,2.5-2.5,2.5s-2.5-1.119-2.5-2.5s0.286-2.5,1.667-2.5S20,18.055,20,19.436z"/>
<path fill="#999999" d="M30,19.436c0,1.381,1.119,2.5,2.5,2.5s2.5-1.119,2.5-2.5s-0.285-2.5-1.666-2.5S30,18.055,30,19.436z"/>
<path fill="#999999" d="M30,38.519c0,0.729-2.238,0.66-5,0.66c-2.761,0-5,0.069-5-0.66s2.239-4.083,5-4.083
	C27.762,34.436,30,37.789,30,38.519z"/>
</svg>
